<?xml version="1.0" encoding="UTF-8"?>
<!DOCTYPE svg PUBLIC "-//W3C//DTD SVG 1.1//EN" "http://www.w3.org/Graphics/SVG/1.1/DTD/svg11.dtd">
<!-- Creator: CorelDRAW X7 -->
<svg xmlns="http://www.w3.org/2000/svg" xml:space="preserve" width="698px" height="698px" version="1.1" style="shape-rendering:geometricPrecision; text-rendering:geometricPrecision; image-rendering:optimizeQuality; fill-rule:evenodd; clip-rule:evenodd"
viewBox="0 0 3271 3271"
 xmlns:xlink="http://www.w3.org/1999/xlink">
 <defs>
  <style type="text/css">
   <![CDATA[
    .fil3 {fill:#FEFEFE}
    .fil0 {fill:#FEFEFE}
    .fil1 {fill:#336699}
    .fil2 {fill:#7BB1EC}
    .fil4 {fill:#7BB1EC;fill-rule:nonzero}
   ]]>
  </style>
 </defs>
 <g id="Layer_x0020_1">
  <metadata id="CorelCorpID_0Corel-Layer"/>
  <g id="_977584864">
   <circle class="fil0" cx="1636" cy="1636" r="1585"/>
   <path class="fil1" d="M1636 0c903,0 1635,732 1635,1636 0,903 -732,1635 -1635,1635 -904,0 -1636,-732 -1636,-1635 0,-904 732,-1636 1636,-1636zm0 85c856,0 1550,694 1550,1551 0,856 -694,1550 -1550,1550 -857,0 -1551,-694 -1551,-1550 0,-857 694,-1551 1551,-1551z"/>
   <circle class="fil2" cx="1636" cy="1636" r="1440"/>
   <path class="fil0" d="M703 1072c-13,-47 108,-77 120,-32 15,57 31,115 46,172 86,322 172,644 259,966 99,361 151,545 250,907 -40,10 -80,21 -120,32 -201,-741 -354,-1304 -555,-2045z"/>
   <path class="fil3" d="M902 1212c482,-129 963,-258 1445,-387 119,309 204,631 258,966 -481,129 -963,258 -1444,387 -3,-356 -70,-682 -259,-966z"/>
   <path class="fil4" d="M1417 1298c75,-20 152,-8 215,28 63,37 112,97 132,173 20,75 8,152 -28,215 -37,62 -97,111 -173,132 -75,20 -152,8 -215,-29 -62,-36 -111,-96 -132,-172 -20,-75 -8,-152 29,-215 36,-63 96,-112 172,-132zm185 80c-50,-29 -110,-38 -170,-22 -60,16 -107,54 -136,104 -29,50 -38,110 -22,170 16,60 54,107 104,136 50,29 110,38 170,22 60,-16 107,-54 136,-104 29,-50 38,-110 22,-170 -16,-60 -54,-107 -104,-136z"/>
   <path class="fil4" d="M1331 1661l110 -191 15 -25 26 15 191 110c0,21 -4,42 -11,62l-184 -106 -107 184c-16,-14 -30,-30 -40,-49z"/>
   <path class="fil4" d="M2196 1676c-75,20 -152,8 -215,-28 -63,-36 -112,-97 -132,-172 -20,-76 -8,-153 28,-215 37,-63 97,-112 173,-132 75,-21 152,-8 215,28 62,36 111,96 132,172 20,76 8,152 -29,215 -36,63 -96,112 -172,132zm-185 -80c50,29 110,39 170,23 60,-16 107,-55 136,-105 29,-49 38,-110 22,-170 -16,-59 -54,-107 -104,-136 -50,-28 -110,-38 -170,-22 -60,16 -107,55 -136,104 -29,50 -38,111 -22,170 16,60 54,108 104,136z"/>
   <path class="fil4" d="M2282 1313l-110 191 -15 26 -26 -15 -191 -110c0,-22 4,-43 11,-63l184 106 107 -184c16,14 30,30 40,49z"/>
  </g>
 </g>
</svg>
